<svg width="20" height="20" viewBox="0 0 20 20" fill="none" xmlns="http://www.w3.org/2000/svg">
<path d="M16.6667 10.8333C16.6667 15 13.75 17.0833 10.2834 18.2917C10.1018 18.3532 9.90466 18.3502 9.72504 18.2833C6.25004 17.0833 3.33337 15 3.33337 10.8333V5C3.33337 4.77898 3.42117 4.56702 3.57745 4.41074C3.73373 4.25446 3.94569 4.16666 4.16671 4.16666C5.83337 4.16666 7.91671 3.16666 9.36671 1.9C9.54325 1.74916 9.76784 1.66629 10 1.66629C10.2322 1.66629 10.4568 1.74916 10.6334 1.9C12.0917 3.175 14.1667 4.16666 15.8334 4.16666C16.0544 4.16666 16.2663 4.25446 16.4226 4.41074C16.5789 4.56702 16.6667 4.77898 16.6667 5V10.8333Z" stroke="#6E44FF" stroke-width="1.04167" stroke-linecap="round" stroke-linejoin="round"/>
<path d="M5.31335 15.7583C5.66895 14.8018 6.3087 13.977 7.14671 13.3947C7.98471 12.8123 8.98083 12.5004 10.0013 12.5006C11.0218 12.5009 12.0177 12.8134 12.8554 13.3962C13.6931 13.979 14.3324 14.8041 14.6875 15.7608" stroke="#6E44FF" stroke-width="1.04167" stroke-linecap="round" stroke-linejoin="round"/>
<path d="M9.99996 12.5C11.8409 12.5 13.3333 11.0076 13.3333 9.16667C13.3333 7.32572 11.8409 5.83333 9.99996 5.83333C8.15901 5.83333 6.66663 7.32572 6.66663 9.16667C6.66663 11.0076 8.15901 12.5 9.99996 12.5Z" stroke="#6E44FF" stroke-width="1.04167" stroke-linecap="round" stroke-linejoin="round"/>
</svg>
