<svg width="20" height="20" viewBox="0 0 20 20" fill="none" xmlns="http://www.w3.org/2000/svg">
<path d="M1.66669 7.91668C1.6667 6.98935 1.94801 6.08383 2.47346 5.31973C2.99891 4.55563 3.74378 3.9689 4.60969 3.63701C5.4756 3.30513 6.42182 3.24372 7.32336 3.46088C8.22491 3.67805 9.03937 4.16358 9.65919 4.85335C9.70284 4.90003 9.75562 4.93724 9.81425 4.96268C9.87288 4.98812 9.93611 5.00125 10 5.00125C10.0639 5.00125 10.1272 4.98812 10.1858 4.96268C10.2444 4.93724 10.2972 4.90003 10.3409 4.85335C10.9587 4.1591 11.7734 3.66949 12.6764 3.44968C13.5794 3.22988 14.5279 3.2903 15.3957 3.62292C16.2636 3.95553 17.0095 4.54456 17.5343 5.3116C18.0591 6.07864 18.3378 6.98732 18.3334 7.91668C18.3334 9.82502 17.0834 11.25 15.8334 12.5L11.2567 16.9275C11.1014 17.1059 10.91 17.2491 10.6951 17.3478C10.4802 17.4464 10.2467 17.4982 10.0103 17.4997C9.7738 17.5012 9.53973 17.4524 9.32359 17.3565C9.10746 17.2605 8.91421 17.1197 8.75669 16.9434L4.16669 12.5C2.91669 11.25 1.66669 9.83335 1.66669 7.91668Z" stroke="#6E44FF" stroke-width="1.25" stroke-linecap="round" stroke-linejoin="round"/>
</svg>
