<svg width="25" height="25" viewBox="0 0 25 25" fill="none" xmlns="http://www.w3.org/2000/svg">
<path d="M15.625 21.875V13.5417C15.625 13.2654 15.5153 13.0004 15.3199 12.8051C15.1246 12.6097 14.8596 12.5 14.5833 12.5H10.4167C10.1404 12.5 9.87545 12.6097 9.6801 12.8051C9.48475 13.0004 9.375 13.2654 9.375 13.5417V21.875" stroke="#6E44FF" stroke-width="1.25" stroke-linecap="round" stroke-linejoin="round"/>
<path d="M3.125 10.4167C3.12493 10.1137 3.19097 9.81424 3.31853 9.53934C3.44609 9.26444 3.63208 9.02067 3.86354 8.82505L11.1552 2.57505C11.5312 2.25725 12.0077 2.08289 12.5 2.08289C12.9923 2.08289 13.4688 2.25725 13.8448 2.57505L21.1365 8.82505C21.3679 9.02067 21.5539 9.26444 21.6815 9.53934C21.809 9.81424 21.8751 10.1137 21.875 10.4167V19.7917C21.875 20.3443 21.6555 20.8742 21.2648 21.2649C20.8741 21.6556 20.3442 21.8751 19.7917 21.8751H5.20833C4.6558 21.8751 4.12589 21.6556 3.73519 21.2649C3.34449 20.8742 3.125 20.3443 3.125 19.7917V10.4167Z" stroke="#6E44FF" stroke-width="1.25" stroke-linecap="round" stroke-linejoin="round"/>
</svg>
