<svg width="20" height="20" viewBox="0 0 20 20" fill="none" xmlns="http://www.w3.org/2000/svg">
<g clip-path="url(#clip0_108_2734)">
<path d="M2.49334 13.6183C2.61587 13.9274 2.64315 14.2661 2.57167 14.5908L1.68417 17.3325C1.65558 17.4715 1.66297 17.6156 1.70565 17.751C1.74834 17.8863 1.82489 18.0086 1.92806 18.1061C2.03123 18.2036 2.1576 18.2731 2.29517 18.3081C2.43275 18.343 2.57697 18.3423 2.71417 18.3058L5.55834 17.4742C5.86477 17.4134 6.18211 17.44 6.47417 17.5508C8.25366 18.3819 10.2695 18.5577 12.166 18.0473C14.0625 17.5369 15.7177 16.3731 16.8398 14.7611C17.9618 13.1492 18.4784 11.1928 18.2986 9.23713C18.1187 7.28142 17.2539 5.45207 15.8567 4.07184C14.4595 2.69161 12.6198 1.84921 10.662 1.69326C8.70423 1.5373 6.75429 2.07783 5.15621 3.21946C3.55813 4.36109 2.41462 6.03046 1.92742 7.93304C1.44022 9.83562 1.64065 11.8491 2.49334 13.6183Z" stroke="#8865FD" stroke-width="1.5" stroke-linecap="round" stroke-linejoin="round"/>
</g>
<defs>
<clipPath id="clip0_108_2734">
<rect width="20" height="20" fill="white"/>
</clipPath>
</defs>
</svg>
