<svg width="25" height="25" viewBox="0 0 25 25" fill="none" xmlns="http://www.w3.org/2000/svg">
<path d="M11.9792 15.625H7.29167C6.1866 15.625 5.12679 16.064 4.34539 16.8454C3.56399 17.6268 3.125 18.6866 3.125 19.7917V21.875" stroke="#6E44FF" stroke-width="1.25" stroke-linecap="round" stroke-linejoin="round"/>
<path d="M22.2688 17.3187C22.6837 16.9038 22.9168 16.341 22.9168 15.7542C22.9168 15.1673 22.6837 14.6045 22.2688 14.1896C21.8538 13.7746 21.291 13.5415 20.7042 13.5415C20.1174 13.5415 19.5546 13.7746 19.1396 14.1896L14.9625 18.3687C14.7149 18.6163 14.5336 18.9222 14.4354 19.2583L13.5636 22.2479C13.5374 22.3375 13.5358 22.4326 13.559 22.523C13.5822 22.6135 13.6293 22.696 13.6953 22.762C13.7613 22.828 13.8438 22.8751 13.9343 22.8983C14.0247 22.9215 14.1198 22.9199 14.2094 22.8937L17.199 22.0219C17.5351 21.9237 17.841 21.7424 18.0886 21.4948L22.2688 17.3187Z" stroke="#6E44FF" stroke-width="1.25" stroke-linecap="round" stroke-linejoin="round"/>
<path d="M10.4167 11.4583C12.7179 11.4583 14.5833 9.59285 14.5833 7.29167C14.5833 4.99048 12.7179 3.125 10.4167 3.125C8.11548 3.125 6.25 4.99048 6.25 7.29167C6.25 9.59285 8.11548 11.4583 10.4167 11.4583Z" stroke="#6E44FF" stroke-width="1.25" stroke-linecap="round" stroke-linejoin="round"/>
</svg>
