<svg width="20" height="20" viewBox="0 0 20 20" fill="none" xmlns="http://www.w3.org/2000/svg">
<path d="M3.09498 2.53999C3.02003 2.5034 2.9358 2.49025 2.85326 2.50224C2.77072 2.51423 2.69372 2.55081 2.63228 2.60721C2.57084 2.66361 2.52782 2.73722 2.50883 2.81843C2.48984 2.89964 2.49576 2.98469 2.52581 3.06249L4.89498 9.41832C5.03471 9.79351 5.03471 10.2065 4.89498 10.5817L2.52665 16.9375C2.49674 17.0152 2.4909 17.1001 2.50988 17.1812C2.52886 17.2622 2.57179 17.3357 2.63308 17.3921C2.69437 17.4484 2.7712 17.485 2.85357 17.4971C2.93595 17.5093 3.02006 17.4963 3.09498 17.46L18.095 10.3767C18.1663 10.3429 18.2266 10.2896 18.2689 10.2229C18.3111 10.1562 18.3335 10.0789 18.3335 9.99999C18.3335 9.92106 18.3111 9.84375 18.2689 9.77707C18.2266 9.71039 18.1663 9.65707 18.095 9.62332L3.09498 2.53999Z" stroke="#6E44FF" stroke-width="1.25" stroke-linecap="round" stroke-linejoin="round"/>
<path d="M5 10H18.3333" stroke="#6E44FF" stroke-width="1.25" stroke-linecap="round" stroke-linejoin="round"/>
</svg>
